<svg
   role="img"
   focusable="false"
   aria-hidden="true"
   viewBox="0 0 14 14"
   xmlns="http://www.w3.org/2000/svg">
  <path
     d="m 8.8752116,12.181305 v -0.845421 c 0.3824271,-0.154001 0.726847,-0.36571 1.0522956,-0.605995 l 0.7732288,0.43071 c 0.129524,0.07348 0.274423,0.111383 0.423312,0.111383 0.07294,0 0.14588,-0.0105 0.216596,-0.02797 0.216594,-0.05726 0.40349,-0.194791 0.514241,-0.381738 L 12.886967,9.137646 C 13.120376,8.7467822 12.980643,8.2446393 12.57519,8.0191521 L 11.798888,7.5845715 c 0.02336,-0.1937454 0.05915,-0.3841963 0.05915,-0.58406 0,-0.200282 -0.03578,-0.3919096 -0.05915,-0.5854981 L 12.57519,5.9817665 C 12.769673,5.8719503 12.910975,5.6936322 12.97129,5.4831529 13.02958,5.2718895 12.99661,5.0497752 12.88697,4.8614422 L 11.854885,3.1377619 C 11.699911,2.8751729 11.41463,2.7284127 11.122019,2.7284127 c -0.144899,0 -0.288488,0.034775 -0.421219,0.1098161 L 9.9275724,3.2698799 C 9.6021235,3.0301169 9.256657,2.8177291 8.8752766,2.6630465 V 1.8201103 C 8.8752766,1.3669134 8.4961856,1 8.0281931,1 H 5.9710286 C 5.5019897,1 5.1238146,1.3669134 5.1238146,1.8201103 V 2.6630465 C 4.7434808,2.8178336 4.3959207,3.0302213 4.0729577,3.2698799 L 3.2988145,2.8372867 C 3.1697472,2.7645994 3.0251103,2.7282557 2.8783147,2.7282557 c -0.073855,0 -0.1488238,0.010461 -0.2218277,0.027978 C 2.4398921,2.8119249 2.256332,2.9484095 2.1422449,3.1364026 L 1.1123216,4.8612069 c -0.23151155,0.3921709 -0.09407,0.8935296 0.3104686,1.1203242 l 0.7773489,0.433247 c -0.023163,0.193484 -0.059268,0.3851637 -0.059268,0.5855242 0,0.1997591 0.036177,0.39021 0.059268,0.583354 L 1.4227902,8.0174787 C 1.0182522,8.2431227 0.88081119,8.7454488 1.1123216,9.1373584 L 2.1421142,10.86198 c 0.1140877,0.186948 0.2977122,0.32453 0.5142421,0.381738 0.071957,0.0183 0.1458801,0.02797 0.218622,0.02797 0.149086,0 0.2937219,-0.03791 0.4237052,-0.111384 l 0.7722463,-0.430711 c 0.3249255,0.240286 0.6724201,0.452176 1.0528194,0.606022 v 0.84542 C 5.1237492,12.632693 5.5019241,13 5.9709632,13 h 2.0571645 c 0.4679925,1.83e-4 0.8470835,-0.367176 0.8470835,-0.818855 z M 4.663215,7.0004593 c 0,-1.2491741 1.0468009,-2.2607289 2.334205,-2.2607289 1.2928991,0 2.3395692,1.0114764 2.3395692,2.2607289 0,1.2470298 -1.0466701,2.2585586 -2.3395692,2.2585586 C 5.7100159,9.2589655 4.663215,8.2474891 4.663215,7.0004593 Z" />
</svg>
