<svg
   role="img"
   focusable="false"
   aria-hidden="true"
   viewBox="0 0 14 14"
   xmlns="http://www.w3.org/2000/svg">
  <path
     d="M 5.75,4.5454543 C 5.75,4.6562497 5.71289,4.7521362 5.6386718,4.8331133 5.5644534,4.9140684 5.4765624,4.9545458 5.375,4.9545458 H 4.625 V 11.5 h -1.5 V 4.9545458 h -0.75 c -0.1015625,0 -0.1894532,-0.040477 -0.2636719,-0.1214325 C 2.0371098,4.7521364 2,4.6562497 2,4.5454543 2,4.434659 2.03711,4.3387842 2.1113281,4.2578297 l 1.5,-1.6363638 C 3.6855468,2.5404886 3.7734374,2.5 3.8749999,2.5 c 0.1015625,0 0.1894532,0.04049 0.2636719,0.1214659 l 1.5,1.6363638 C 5.7128911,4.3387838 5.75,4.434659 5.75,4.5454543 Z" />
  <path
     d="M 13,10.272727 C 13,10.125 12.95052,9.9971516 12.851562,9.8891821 12.752602,9.7812421 12.635417,9.7272721 12.5,9.7272721 h -1 V 1 h -2 v 8.7272721 h -1 c -0.1354167,0 -0.2526042,0.053969 -0.3515625,0.16191 C 8.0494797,9.9971513 8,10.125 8,10.272727 c 0,0.147728 0.04948,0.275561 0.1484375,0.3835 l 2.0000005,2.181819 C 10.247396,12.946015 10.364583,13 10.5,13 c 0.135417,0 0.252604,-0.05399 0.351562,-0.161954 l 2,-2.181819 C 12.950521,10.548288 13,10.420455 13,10.272727 Z" />
</svg>
