<svg
   role="img"
   focusable="false"
   aria-hidden="true"
   viewBox="0 0 14 14"
   xmlns="http://www.w3.org/2000/svg">
  <path
     d="M 6,3.7272726 C 6,3.8749998 5.9505205,4.0028484 5.8515624,4.1108179 5.7526046,4.2187579 5.6354166,4.2727279 5.5,4.2727279 H 4.4999999 V 13 H 2.5 V 4.2727279 h -1 c -0.1354167,0 -0.2526042,-0.053969 -0.3515625,-0.16191 C 1.0494797,4.0028487 1,3.8749998 1,3.7272726 1,3.5795455 1.0494795,3.4517124 1.1484375,3.3437731 l 2,-2.1818186 C 3.2473957,1.0539848 3.3645832,1 3.4999998,1 3.6354166,1 3.7526041,1.053986 3.8515624,1.1619545 l 2,2.1818186 C 5.9505213,3.4517119 6,3.5795455 6,3.7272726 Z" />
  <path
     d="M 12.5,9.4545452 C 12.5,9.34375 12.46289,9.2478637 12.388671,9.1668866 12.314452,9.0859316 12.226563,9.0454541 12.125,9.0454541 h -0.75 V 2.5 h -1.5 v 6.5454541 h -0.75 c -0.1015625,0 -0.1894531,0.040477 -0.2636719,0.1214325 C 8.7871098,9.2478635 8.75,9.34375 8.75,9.4545452 c 0,0.1107961 0.03711,0.2066708 0.1113281,0.287625 L 10.361329,11.378535 C 10.435547,11.459511 10.523437,11.5 10.625,11.5 c 0.101563,0 0.189453,-0.04049 0.263671,-0.121465 l 1.5,-1.6363647 C 12.462891,9.661216 12.5,9.5653413 12.5,9.4545452 Z" />
</svg>
