<?xml version="1.0" encoding="UTF-8" standalone="no"?>
<!-- Created with Inkscape (http://www.inkscape.org/) -->

<svg
   width="69.889999"
   height="61.322174"
   viewBox="0 0 69.889999 61.322174"
   version="1.1"
   id="svg1"
   xml:space="preserve"
   xmlns="http://www.w3.org/2000/svg"
   xmlns:svg="http://www.w3.org/2000/svg"><defs
     id="defs1"><linearGradient
       id="swatch21052"><stop
         style="stop-color:#000000;stop-opacity:1;"
         offset="0"
         id="stop21053" /></linearGradient><filter
       style="color-interpolation-filters:sRGB"
       id="filter21059"
       x="-0.024070283"
       y="-0.030741719"
       width="1.0481406"
       height="1.0614834"><feGaussianBlur
         stdDeviation="0.3959595"
         id="feGaussianBlur21059" /></filter><filter
       style="color-interpolation-filters:sRGB"
       id="filter21063"
       x="-0.38512454"
       y="-0.4918675"
       width="1.7702491"
       height="1.983735"><feGaussianBlur
         stdDeviation="6.3353521"
         id="feGaussianBlur21063" /></filter><filter
       style="color-interpolation-filters:sRGB"
       id="filter21065"
       x="-0.10890932"
       y="-0.13916601"
       width="1.2178022"
       height="1.2781386"><feGaussianBlur
         stdDeviation="1.583838"
         id="feGaussianBlur21065" /></filter></defs><g
     id="layer3"
     style="display:inline"
     transform="translate(-82.091507,-228.31375)"><path
       style="display:inline;mix-blend-mode:normal;fill:#ffffff;fill-opacity:0.5;stroke:none;stroke-width:1;stroke-dasharray:none;stroke-opacity:1;filter:url(#filter21063)"
       d="m 99.774924,243.86176 c 0.895746,0.0366 2.687206,0.10968 3.994286,0.63982 1.30707,0.53014 2.12968,1.51727 4.11314,4.11315 1.98347,2.59587 5.12764,6.80029 7.81436,7.98315 2.68672,1.18286 4.91576,-0.65581 6.69615,-2.68051 1.78038,-2.0247 3.11189,-4.23518 4.42751,-6.02759 1.31562,-1.79241 2.61532,-3.16666 4.4228,-3.84016 1.80748,-0.6735 4.12259,-0.6462 5.03239,-0.2529 0.9098,0.3933 0.41418,1.15256 -0.17562,1.80329 -0.5898,0.65072 -1.27375,1.19286 -2.17099,2.7198 -0.89724,1.52693 -2.00774,4.03857 -3.27796,5.71945 -1.27022,1.68089 -2.68021,2.51912 -3.12169,3.0188 -0.44148,0.49969 0.10983,0.63333 1.32615,0.60748 1.21633,-0.0259 3.08973,-0.21309 4.61056,0.19537 1.52084,0.40845 2.68892,1.41255 3.09017,2.09743 0.40125,0.68487 0.0356,1.05047 -0.3848,1.28812 -0.42046,0.23765 -0.89574,0.34733 -1.95603,0.34733 -1.06028,-1e-5 -2.7055,-0.10969 -4.03999,0.0731 -1.33448,0.18282 -2.35816,0.6581 -3.91203,0.91403 -1.55386,0.25592 -3.63779,0.29249 -5.17336,0.10968 -1.53558,-0.18281 -2.5227,-0.58498 -2.57753,0.20111 -0.0548,0.78608 0.82261,2.76033 1.18822,4.44215 0.3656,1.68182 0.21936,3.07111 -0.0366,4.18623 -0.25593,1.11511 -0.62153,1.956 -1.07855,2.43129 -0.45702,0.4753 -1.00542,0.58498 -1.44415,0.38389 -0.43874,-0.20109 -0.76778,-0.71294 -0.73122,-1.46245 0.0366,-0.74951 0.43873,-1.73663 0.53013,-2.59582 0.0914,-0.85919 -0.12796,-1.5904 -0.54842,-2.541 -0.42046,-0.95059 -1.04198,-2.12052 -1.31619,-3.05283 -0.2742,-0.93232 -0.20108,-1.62696 -0.45702,-1.79148 -0.25593,-0.16452 -0.84089,0.20108 -2.01086,0.42045 -1.16997,0.21936 -2.92486,0.29249 -4.38731,-0.10969 -1.46245,-0.40218 -2.63238,-1.27963 -3.87547,-1.75492 -1.24309,-0.4753 -2.55925,-0.54842 -3.80234,-0.60326 -1.243086,-0.0548 -2.413012,-0.0914 -2.924864,-0.4753 -0.511852,-0.3839 -0.365612,-1.1151 0.109689,-1.75492 0.475301,-0.63983 1.279625,-1.18823 2.157101,-1.48072 0.877474,-0.29249 1.828034,-0.32905 2.778624,-0.25593 0.9506,0.0731 1.90117,0.25593 2.44959,0.12797 0.54841,-0.12797 0.69466,-0.5667 0.19193,-1.32535 -0.50272,-0.75865 -1.65435,-1.83716 -2.49527,-3.29963 -0.84092,-1.46246 -1.37103,-3.30873 -2.01086,-4.59752 -0.63983,-1.2888 -1.389304,-2.01999 -1.727499,-2.58669 -0.338195,-0.56671 -0.265075,-0.96887 -0.228514,-1.16995 0.03656,-0.20109 0.03656,-0.20105 0.932307,-0.16449 z"
       id="path21061" /><path
       style="display:inline;mix-blend-mode:normal;fill:none;fill-opacity:1;stroke:#ffffff;stroke-width:1;stroke-dasharray:none;stroke-opacity:0.5;filter:url(#filter21065)"
       d="m 99.774924,243.86176 c 0.895746,0.0366 2.687206,0.10968 3.994286,0.63982 1.30707,0.53014 2.12968,1.51727 4.11314,4.11315 1.98347,2.59587 5.12764,6.80029 7.81436,7.98315 2.68672,1.18286 4.91576,-0.65581 6.69615,-2.68051 1.78038,-2.0247 3.11189,-4.23518 4.42751,-6.02759 1.31562,-1.79241 2.61532,-3.16666 4.4228,-3.84016 1.80748,-0.6735 4.12259,-0.6462 5.03239,-0.2529 0.9098,0.3933 0.41418,1.15256 -0.17562,1.80329 -0.5898,0.65072 -1.27375,1.19286 -2.17099,2.7198 -0.89724,1.52693 -2.00774,4.03857 -3.27796,5.71945 -1.27022,1.68089 -2.68021,2.51912 -3.12169,3.0188 -0.44148,0.49969 0.10983,0.63333 1.32615,0.60748 1.21633,-0.0259 3.08973,-0.21309 4.61056,0.19537 1.52084,0.40845 2.68892,1.41255 3.09017,2.09743 0.40125,0.68487 0.0356,1.05047 -0.3848,1.28812 -0.42046,0.23765 -0.89574,0.34733 -1.95603,0.34733 -1.06028,-1e-5 -2.7055,-0.10969 -4.03999,0.0731 -1.33448,0.18282 -2.35816,0.6581 -3.91203,0.91403 -1.55386,0.25592 -3.63779,0.29249 -5.17336,0.10968 -1.53558,-0.18281 -2.5227,-0.58498 -2.57753,0.20111 -0.0548,0.78608 0.82261,2.76033 1.18822,4.44215 0.3656,1.68182 0.21936,3.07111 -0.0366,4.18623 -0.25593,1.11511 -0.62153,1.956 -1.07855,2.43129 -0.45702,0.4753 -1.00542,0.58498 -1.44415,0.38389 -0.43874,-0.20109 -0.76778,-0.71294 -0.73122,-1.46245 0.0366,-0.74951 0.43873,-1.73663 0.53013,-2.59582 0.0914,-0.85919 -0.12796,-1.5904 -0.54842,-2.541 -0.42046,-0.95059 -1.04198,-2.12052 -1.31619,-3.05283 -0.2742,-0.93232 -0.20108,-1.62696 -0.45702,-1.79148 -0.25593,-0.16452 -0.84089,0.20108 -2.01086,0.42045 -1.16997,0.21936 -2.92486,0.29249 -4.38731,-0.10969 -1.46245,-0.40218 -2.63238,-1.27963 -3.87547,-1.75492 -1.24309,-0.4753 -2.55925,-0.54842 -3.80234,-0.60326 -1.243086,-0.0548 -2.413012,-0.0914 -2.924864,-0.4753 -0.511852,-0.3839 -0.365612,-1.1151 0.109689,-1.75492 0.475301,-0.63983 1.279625,-1.18823 2.157101,-1.48072 0.877474,-0.29249 1.828034,-0.32905 2.778624,-0.25593 0.9506,0.0731 1.90117,0.25593 2.44959,0.12797 0.54841,-0.12797 0.69466,-0.5667 0.19193,-1.32535 -0.50272,-0.75865 -1.65435,-1.83716 -2.49527,-3.29963 -0.84092,-1.46246 -1.37103,-3.30873 -2.01086,-4.59752 -0.63983,-1.2888 -1.389304,-2.01999 -1.727499,-2.58669 -0.338195,-0.56671 -0.265075,-0.96887 -0.228514,-1.16995 0.03656,-0.20109 0.03656,-0.20105 0.932307,-0.16449 z"
       id="path21063" /><path
       style="display:inline;mix-blend-mode:normal;fill:#ffffff;fill-opacity:1;stroke:none;stroke-width:4;stroke-dasharray:none;stroke-opacity:1;filter:url(#filter21059)"
       d="m 99.774924,243.86176 c 0.895746,0.0366 2.687206,0.10968 3.994286,0.63982 1.30707,0.53014 2.12968,1.51727 4.11314,4.11315 1.98347,2.59587 5.12764,6.80029 7.81436,7.98315 2.68672,1.18286 4.91576,-0.65581 6.69615,-2.68051 1.78038,-2.0247 3.11189,-4.23518 4.42751,-6.02759 1.31562,-1.79241 2.61532,-3.16666 4.4228,-3.84016 1.80748,-0.6735 4.12259,-0.6462 5.03239,-0.2529 0.9098,0.3933 0.41418,1.15256 -0.17562,1.80329 -0.5898,0.65072 -1.27375,1.19286 -2.17099,2.7198 -0.89724,1.52693 -2.00774,4.03857 -3.27796,5.71945 -1.27022,1.68089 -2.68021,2.51912 -3.12169,3.0188 -0.44148,0.49969 0.10983,0.63333 1.32615,0.60748 1.21633,-0.0259 3.08973,-0.21309 4.61056,0.19537 1.52084,0.40845 2.68892,1.41255 3.09017,2.09743 0.40125,0.68487 0.0356,1.05047 -0.3848,1.28812 -0.42046,0.23765 -0.89574,0.34733 -1.95603,0.34733 -1.06028,-1e-5 -2.7055,-0.10969 -4.03999,0.0731 -1.33448,0.18282 -2.35816,0.6581 -3.91203,0.91403 -1.55386,0.25592 -3.63779,0.29249 -5.17336,0.10968 -1.53558,-0.18281 -2.5227,-0.58498 -2.57753,0.20111 -0.0548,0.78608 0.82261,2.76033 1.18822,4.44215 0.3656,1.68182 0.21936,3.07111 -0.0366,4.18623 -0.25593,1.11511 -0.62153,1.956 -1.07855,2.43129 -0.45702,0.4753 -1.00542,0.58498 -1.44415,0.38389 -0.43874,-0.20109 -0.76778,-0.71294 -0.73122,-1.46245 0.0366,-0.74951 0.43873,-1.73663 0.53013,-2.59582 0.0914,-0.85919 -0.12796,-1.5904 -0.54842,-2.541 -0.42046,-0.95059 -1.04198,-2.12052 -1.31619,-3.05283 -0.2742,-0.93232 -0.20108,-1.62696 -0.45702,-1.79148 -0.25593,-0.16452 -0.84089,0.20108 -2.01086,0.42045 -1.16997,0.21936 -2.92486,0.29249 -4.38731,-0.10969 -1.46245,-0.40218 -2.63238,-1.27963 -3.87547,-1.75492 -1.24309,-0.4753 -2.55925,-0.54842 -3.80234,-0.60326 -1.243086,-0.0548 -2.413012,-0.0914 -2.924864,-0.4753 -0.511852,-0.3839 -0.365612,-1.1151 0.109689,-1.75492 0.475301,-0.63983 1.279625,-1.18823 2.157101,-1.48072 0.877474,-0.29249 1.828034,-0.32905 2.778624,-0.25593 0.9506,0.0731 1.90117,0.25593 2.44959,0.12797 0.54841,-0.12797 0.69466,-0.5667 0.19193,-1.32535 -0.50272,-0.75865 -1.65435,-1.83716 -2.49527,-3.29963 -0.84092,-1.46246 -1.37103,-3.30873 -2.01086,-4.59752 -0.63983,-1.2888 -1.389304,-2.01999 -1.727499,-2.58669 -0.338195,-0.56671 -0.265075,-0.96887 -0.228514,-1.16995 0.03656,-0.20109 0.03656,-0.20105 0.932307,-0.16449 z"
       id="path21046" /></g></svg>
